<svg xmlns="http://www.w3.org/2000/svg" viewBox="0 0 64 64" width="64" height="64" role="img" aria-labelledby="title desc">
  <title id="title">Sudharsan Portfolio Favicon</title>
  <desc id="desc">Minimal professional avatar silhouette with tie on crimson-on-black thematic background.</desc>
  <defs>
    <!-- Dark radial base to match site theme -->
    <radialGradient id="bg" cx="32" cy="32" r="32" gradientUnits="userSpaceOnUse">
      <stop offset="0%" stop-color="#13080a"/>
      <stop offset="65%" stop-color="#0a090a"/>
      <stop offset="100%" stop-color="#050506"/>
    </radialGradient>
    <!-- Crimson aura ring -->
    <radialGradient id="aura" cx="32" cy="24" r="20" gradientUnits="userSpaceOnUse">
      <stop offset="10%" stop-color="#ff2e3a" stop-opacity="0.95"/>
      <stop offset="55%" stop-color="#7f121c" stop-opacity="0.55"/>
      <stop offset="85%" stop-color="#2c0509" stop-opacity="0.35"/>
      <stop offset="100%" stop-color="#000" stop-opacity="0"/>
    </radialGradient>
    <filter id="glow" x="-120%" y="-120%" width="340%" height="340%" color-interpolation-filters="sRGB">
      <feGaussianBlur in="SourceGraphic" stdDeviation="2.2" result="b"/>
      <feColorMatrix in="b" type="matrix" values="0 0 0 0 1  0 0 0 0 0.18  0 0 0 0 0.22  0 0 0 0.75 0" result="t"/>
      <feMerge><feMergeNode in="t"/><feMergeNode in="SourceGraphic"/></feMerge>
    </filter>
    <clipPath id="round"><rect x="4" y="4" width="56" height="56" rx="16" ry="16"/></clipPath>
  </defs>
  <g clip-path="url(#round)">
    <rect x="4" y="4" width="56" height="56" rx="16" fill="url(#bg)"/>
    <!-- Subtle outer ring -->
    <circle cx="32" cy="32" r="27" fill="none" stroke="#ff2e3a" stroke-opacity="0.18" stroke-width="2"/>
    <!-- Aura behind avatar -->
    <circle cx="32" cy="30" r="18" fill="url(#aura)"/>
    <!-- Avatar group -->
    <g fill="#ffffff" fill-opacity="0.95" filter="url(#glow)">
      <!-- Head -->
      <circle cx="32" cy="24" r="7"/>
      <!-- Shoulders / torso (simplified for favicon clarity) -->
      <path d="M18.5 46.5c1.2-8.3 6.9-12.5 13.5-12.5s12.3 4.2 13.5 12.5c.1.9-.5 1.5-1.3 1.5H19.8c-.8 0-1.4-.6-1.3-1.5Z"/>
      <!-- Tie (crimson accent) -->
      <path d="M30.4 32.2 32 34.8l1.6-2.6-1.1-2.2h-1z" fill="#ff2e3a" fill-opacity="0.95"/>
      <path d="M32 34.8 29.8 39.7c-.15.3.08.65.41.65h3.58c.33 0 .56-.35.41-.65L32 34.8Z" fill="#ff2e3a"/>
    </g>
  </g>
  <!-- Crisp outer stroke -->
  <rect x="4" y="4" width="56" height="56" rx="16" ry="16" fill="none" stroke="#ff2e3a" stroke-opacity="0.38" stroke-width="1"/>
</svg>
